<svg width="128" height="128" viewBox="0 0 128 128" fill="none" xmlns="http://www.w3.org/2000/svg">
<rect width="128" height="128" fill="black"/>
<path d="M74.8922 114.203H24.6133V80.417H63.5234L74.8922 114.203Z" fill="white"/>
<path d="M72.8105 112.602L62.4025 82.0182H26.2145V112.602H72.8105ZM74.8922 114.203H24.6133V80.417H63.5234L74.8922 114.203Z" fill="white"/>
<path d="M24 13.1217V74.1288H61.9493L43.6952 13.1217" fill="#FA8807"/>
<path d="M61.3473 46.9462H103.46V13H50.9392L61.3473 46.9462Z" fill="white"/>
<path d="M102.019 45.345V14.6012H53.0208L62.4681 45.1849H102.019M103.46 46.9462H61.3473L50.9392 13H103.46V46.9462Z" fill="white"/>
<path d="M100.65 114.161H103.372V53.1542H64.3016L82.8759 114.161H100.65Z" fill="#FA8807"/>
<path d="M100.65 112.56H101.771V54.7555H66.3832L83.9968 112.56H100.65ZM103.532 114.161C103.532 114.161 103.212 114.161 102.891 114.161C102.091 114.161 100.81 114.161 100.81 114.161H82.8759L64.3016 53.1542H103.532V114.161Z" fill="#FA8807"/>
</svg>
