<svg width="461" height="170" viewBox="0 0 461 170" fill="none" xmlns="http://www.w3.org/2000/svg">
<path d="M79.5088 158.109H0.95813V105.325H61.7473L79.5088 158.109Z" fill="white"/>
<path d="M76.2567 155.608L59.9962 107.827H3.45974V155.608H76.2567ZM79.5088 158.109H0.95813V105.325H61.7473L79.5088 158.109Z" fill="white"/>
<path d="M0 0.190063V95.5015H59.2882L30.7699 0.190063" fill="#FA8807"/>
<path d="M58.3475 53.0342H124.14V0H42.087L58.3475 53.0342Z" fill="white"/>
<path d="M121.889 50.5326V2.50161H45.3391L60.0987 50.2824H121.889M124.14 53.0342H58.3475L42.087 0H124.14V53.0342Z" fill="white"/>
<path d="M119.75 158.045H124.003V62.733H62.9631L91.9819 158.045H119.75Z" fill="#FA8807"/>
<path d="M119.75 155.543H121.501V65.2346H66.2152L93.733 155.543H119.75ZM124.253 158.045C124.253 158.045 123.752 158.045 123.252 158.045C122.001 158.045 120 158.045 120 158.045H91.9819L62.9631 62.733H124.253V158.045Z" fill="#FA8807"/>
<path d="M150.064 69.4343L180.614 1.97421H190.155L220.801 69.4343H210.682L183.409 7.37102H187.263L159.99 69.4343H150.064ZM163.074 52.5692L165.676 44.8595H203.647L206.441 52.5692H163.074Z" fill="white"/>
<path d="M261.667 70.2052C256.527 70.2052 251.773 69.37 247.404 67.6996C243.099 65.9649 239.341 63.5556 236.128 60.4717C232.98 57.3236 230.507 53.6615 228.708 49.4854C226.909 45.3093 226.009 40.7156 226.009 35.7042C226.009 30.6929 226.909 26.0992 228.708 21.9231C230.507 17.747 233.012 14.117 236.225 11.0331C239.437 7.885 243.195 5.47571 247.5 3.80527C251.869 2.07059 256.623 1.20325 261.763 1.20325C266.967 1.20325 271.754 2.10271 276.122 3.90165C280.555 5.63633 284.314 8.23836 287.398 11.7077L281.134 17.7791C278.564 15.0807 275.673 13.0891 272.46 11.8041C269.248 10.4549 265.811 9.78031 262.149 9.78031C258.358 9.78031 254.824 10.4228 251.548 11.7077C248.335 12.9927 245.541 14.7916 243.163 17.1045C240.786 19.4175 238.923 22.1801 237.574 25.3925C236.289 28.5406 235.646 31.9779 235.646 35.7042C235.646 39.4306 236.289 42.9 237.574 46.1124C238.923 49.2605 240.786 51.991 243.163 54.3039C245.541 56.6169 248.335 58.4158 251.548 59.7007C254.824 60.9857 258.358 61.6282 262.149 61.6282C265.811 61.6282 269.248 60.9857 272.46 59.7007C275.673 58.3515 278.564 56.2956 281.134 53.533L287.398 59.6044C284.314 63.0737 280.555 65.7079 276.122 67.5068C271.754 69.3058 266.935 70.2052 261.667 70.2052Z" fill="white"/>
<path d="M300.675 69.4343V1.97421H308.578L338.838 52.9547H334.598L364.473 1.97421H372.376L372.472 69.4343H363.22L363.124 16.5263H365.341L338.742 61.2427H334.309L307.518 16.5263H309.927V69.4343H300.675Z" fill="white"/>
<path d="M393.471 69.4343V1.97421H403.011V54.0148L442.909 1.97421H451.775V69.4343H442.331V17.49L402.337 69.4343H393.471Z" fill="white"/>
<path d="M180.056 158.401C176.312 158.401 172.834 157.769 169.625 156.505C166.415 155.192 163.619 153.368 161.236 151.033C158.853 148.699 157.005 145.976 155.692 142.863C154.379 139.702 153.722 136.274 153.722 132.578C153.722 128.882 154.379 125.477 155.692 122.365C157.005 119.204 158.853 116.456 161.236 114.122C163.619 111.788 166.415 109.988 169.625 108.724C172.834 107.411 176.312 106.754 180.056 106.754C183.509 106.754 186.767 107.313 189.831 108.432C192.895 109.55 195.546 111.253 197.783 113.538L196.251 115.143C193.965 112.955 191.46 111.398 188.737 110.474C186.062 109.502 183.193 109.016 180.129 109.016C176.725 109.016 173.564 109.623 170.646 110.839C167.728 112.006 165.175 113.66 162.986 115.8C160.847 117.939 159.169 120.444 157.953 123.313C156.786 126.134 156.202 129.222 156.202 132.578C156.202 135.933 156.786 139.046 157.953 141.915C159.169 144.736 160.847 147.216 162.986 149.356C165.175 151.495 167.728 153.173 170.646 154.389C173.564 155.556 176.725 156.14 180.129 156.14C183.193 156.14 186.062 155.678 188.737 154.754C191.46 153.781 193.965 152.176 196.251 149.939L197.783 151.544C195.546 153.83 192.895 155.556 189.831 156.723C186.767 157.842 183.509 158.401 180.056 158.401Z" fill="white"/>
<path d="M219.459 158.109V108.432L220.334 109.307H200.784V107.046H240.614V109.307H221.064L221.939 108.432V158.109H219.459Z" fill="white"/>
<path d="M245.879 157.307L246.682 155.264C249.016 156.237 251.326 156.456 253.612 155.921C255.897 155.386 258.086 153.489 260.177 150.231L262.657 146.365L262.949 145.927L283.593 107.046H286.219L262.438 150.815C260.979 153.441 259.326 155.362 257.478 156.578C255.63 157.793 253.709 158.401 251.715 158.401C249.721 158.45 247.776 158.085 245.879 157.307ZM262.803 148.407L241.065 107.046H243.764L264.116 146.073L262.803 148.407Z" fill="white"/>
<path d="M291.585 156.723L288.594 155.848C290.685 155.994 292.387 155.264 293.7 153.66C295.014 152.055 296.059 149.769 296.837 146.803C297.615 143.836 298.175 140.407 298.515 136.517C298.855 132.578 299.099 128.395 299.245 123.97L299.755 107.046H331.998V156.942H329.518V109.307H302.017L301.506 124.116C301.36 128.298 301.117 132.335 300.776 136.225C300.436 140.067 299.901 143.52 299.172 146.584C298.491 149.599 297.518 152.03 296.254 153.878C295.038 155.678 293.482 156.626 291.585 156.723ZM286.697 170L286.77 155.848H339.949V170H337.542V158.109H289.105L289.032 170H286.697Z" fill="white"/>
<path d="M352.518 158.109V107.046H354.998V153.805L391.399 107.046H393.442V158.109H391.035V111.35L354.561 158.109H352.518Z" fill="white"/>
<path d="M434.305 158.401C430.561 158.401 427.083 157.769 423.874 156.505C420.664 155.192 417.868 153.368 415.485 151.033C413.102 148.699 411.254 145.976 409.941 142.863C408.628 139.702 407.971 136.274 407.971 132.578C407.971 128.882 408.628 125.477 409.941 122.365C411.254 119.204 413.102 116.456 415.485 114.122C417.868 111.788 420.664 109.988 423.874 108.724C427.083 107.411 430.561 106.754 434.305 106.754C438.098 106.754 441.6 107.411 444.81 108.724C448.019 109.988 450.791 111.788 453.126 114.122C455.509 116.456 457.357 119.204 458.67 122.365C460.031 125.477 460.712 128.882 460.712 132.578C460.712 136.274 460.031 139.702 458.67 142.863C457.357 145.976 455.509 148.699 453.126 151.033C450.791 153.368 448.019 155.192 444.81 156.505C441.6 157.769 438.098 158.401 434.305 158.401ZM434.305 156.14C437.709 156.14 440.871 155.556 443.788 154.389C446.706 153.222 449.235 151.568 451.375 149.429C453.563 147.289 455.241 144.809 456.408 141.988C457.624 139.119 458.232 135.982 458.232 132.578C458.232 129.173 457.624 126.061 456.408 123.24C455.241 120.371 453.563 117.867 451.375 115.727C449.235 113.587 446.706 111.933 443.788 110.766C440.871 109.599 437.709 109.016 434.305 109.016C430.95 109.016 427.813 109.599 424.895 110.766C421.977 111.933 419.424 113.587 417.235 115.727C415.096 117.867 413.418 120.371 412.202 123.24C411.035 126.061 410.451 129.173 410.451 132.578C410.451 135.982 411.035 139.119 412.202 141.988C413.418 144.809 415.096 147.289 417.235 149.429C419.424 151.568 421.977 153.222 424.895 154.389C427.813 155.556 430.95 156.14 434.305 156.14Z" fill="white"/>
</svg>
