<svg width="177" height="64" viewBox="0 0 177 64" fill="none" xmlns="http://www.w3.org/2000/svg">
<path d="M31.983 63.927H0.583008V42.827H24.883L31.983 63.927Z" fill="white"/>
<path d="M30.683 62.927L24.183 43.827H1.58301V62.927H30.683ZM31.983 63.927H0.583008V42.827H24.883L31.983 63.927Z" fill="white"/>
<path d="M0.200012 0.800003V38.9H23.9L12.5 0.800003" fill="#FA8807"/>
<path d="M23.524 21.924H49.824V0.723999H17.024L23.524 21.924Z" fill="white"/>
<path d="M48.924 20.924V1.724H18.324L24.224 20.824H48.924M49.824 21.924H23.524L17.024 0.723999H49.824V21.924Z" fill="white"/>
<path d="M48.069 63.901H49.769V25.801H25.369L36.969 63.901H48.069Z" fill="#FA8807"/>
<path d="M48.069 62.901H48.769V26.801H26.669L37.669 62.901H48.069ZM49.869 63.901C49.869 63.901 49.669 63.901 49.469 63.901C48.969 63.901 48.169 63.901 48.169 63.901H36.969L25.369 25.801H49.869V63.901Z" fill="#FA8807"/>
<path d="M89.9 24H72.6L68.9 32.3H65.5L79.7 1.2H82.9L97.1 32.3H93.6L89.9 24ZM88.7 21.4L81.2 4.7L73.7 21.4H88.7Z" fill="white"/>
<path d="M104.1 31.5C102 30.8 100.3 29.8 99.2 28.6L100.5 26.1C101.6 27.2 103.1 28.1 105 28.8C106.9 29.5 108.8 29.8 110.8 29.8C113.6 29.8 115.7 29.3 117.1 28.3C118.5 27.3 119.2 26 119.2 24.3C119.2 23.1 118.8 22.1 118.1 21.3C117.4 20.5 116.4 20 115.3 19.6C114.2 19.2 112.7 18.8 110.7 18.3C108.4 17.7 106.5 17.1 105.1 16.6C103.7 16.1 102.5 15.2 101.5 14.1C100.5 13 100 11.5 100 9.5C100 7.9 100.4 6.5 101.2 5.2C102 3.9 103.3 2.90001 105 2.10001C106.7 1.30001 108.8 0.899994 111.4 0.899994C113.2 0.899994 114.9 1.10001 116.6 1.60001C118.3 2.10001 119.8 2.80001 121 3.60001L119.9 6.2C118.6 5.3 117.2 4.7 115.7 4.3C114.2 3.9 112.8 3.7 111.3 3.7C108.6 3.7 106.5 4.2 105.2 5.3C103.8 6.4 103.1 7.69999 103.1 9.39999C103.1 10.6 103.5 11.6 104.2 12.4C104.9 13.2 105.9 13.7 107 14.1C108.1 14.5 109.7 14.9 111.6 15.4C113.9 16 115.7 16.5 117.1 17.1C118.5 17.6 119.7 18.5 120.7 19.6C121.7 20.7 122.2 22.2 122.2 24.1C122.2 25.7 121.8 27.1 120.9 28.4C120 29.7 118.8 30.7 117 31.5C115.3 32.3 113.1 32.6 110.6 32.6C108.5 32.6 106.3 32.2 104.1 31.5Z" fill="white"/>
<path d="M161.8 1.3V32.4H158.6V7.5L146.4 28.4H144.8L132.6 7.60001V32.3H129.5V1.2H132.2L145.7 24.2L159.1 1.2H161.8V1.3Z" fill="white"/>
<path d="M171.9 1.3H175.2V32.4H171.9V1.3Z" fill="white"/>
<path d="M69.8 62.4C68.4 61.9 67.4 61.3 66.6 60.5L67.4 58.9C68.1 59.6 69.1 60.2 70.3 60.7C71.5 61.1 72.7 61.4 74 61.4C75.8 61.4 77.1 61.1 78 60.4C78.9 59.7 79.3 58.9 79.3 57.8C79.3 57 79.1 56.4 78.6 55.9C78.1 55.4 77.5 55.1 76.8 54.8C76.1 54.5 75.1 54.3 73.9 54C72.4 53.6 71.2 53.3 70.3 52.9C69.4 52.5 68.6 52 68 51.3C67.4 50.6 67 49.6 67 48.4C67 47.4 67.3 46.5 67.8 45.6C68.3 44.8 69.2 44.1 70.3 43.6C71.4 43.1 72.8 42.9 74.4 42.9C75.5 42.9 76.7 43.1 77.8 43.4C78.9 43.7 79.8 44.1 80.6 44.7L79.9 46.4C79.1 45.8 78.2 45.4 77.2 45.2C76.2 44.9 75.3 44.8 74.4 44.8C72.6 44.8 71.3 45.1 70.4 45.8C69.5 46.5 69.1 47.4 69.1 48.4C69.1 49.2 69.3 49.8 69.8 50.3C70.3 50.8 70.9 51.2 71.6 51.4C72.3 51.7 73.3 51.9 74.6 52.2C76.1 52.6 77.3 52.9 78.2 53.3C79.1 53.7 79.9 54.2 80.5 54.9C81.1 55.6 81.4 56.6 81.4 57.8C81.4 58.8 81.1 59.7 80.6 60.6C80.1 61.4 79.2 62.1 78.1 62.6C77 63.1 75.6 63.3 74 63.3C72.6 63.1 71.2 62.9 69.8 62.4Z" fill="white"/>
<path d="M89.8 44.7H82.8V42.9H99V44.7H92V62.9H89.9V44.7H89.8Z" fill="white"/>
<path d="M103.9 60.9C102.4 59.4 101.7 57.2 101.7 54.4V42.9H103.8V54.3C103.8 56.6 104.3 58.4 105.4 59.5C106.4 60.6 108 61.2 109.9 61.2C111.9 61.2 113.4 60.6 114.5 59.5C115.5 58.4 116.1 56.6 116.1 54.3V42.9H118.2V54.4C118.2 57.2 117.5 59.4 116 60.9C114.6 62.4 112.5 63.1 109.9 63.1C107.3 63.1 105.4 62.4 103.9 60.9Z" fill="white"/>
<path d="M124.6 42.9H132.8C134.9 42.9 136.8 43.3 138.4 44.2C140 45.1 141.3 46.2 142.2 47.7C143.1 49.2 143.5 50.9 143.5 52.9C143.5 54.8 143.1 56.6 142.2 58.1C141.3 59.6 140 60.8 138.4 61.6C136.8 62.4 134.9 62.9 132.8 62.9H124.6V42.9ZM132.6 61.1C134.4 61.1 135.9 60.8 137.2 60.1C138.5 59.4 139.5 58.4 140.3 57.2C141 56 141.4 54.6 141.4 53C141.4 51.4 141 50 140.3 48.8C139.6 47.6 138.6 46.6 137.2 45.9C135.9 45.2 134.3 44.9 132.6 44.9H126.7V61.3H132.6V61.1Z" fill="white"/>
<path d="M148.2 42.9H150.3V62.9H148.2V42.9Z" fill="white"/>
<path d="M160.2 61.8C158.6 60.9 157.3 59.7 156.4 58.2C155.5 56.7 155 54.9 155 53C155 51.1 155.5 49.3 156.4 47.8C157.3 46.3 158.6 45 160.2 44.2C161.8 43.3 163.6 42.9 165.6 42.9C167.6 42.9 169.4 43.3 171 44.2C172.6 45.1 173.8 46.3 174.8 47.8C175.7 49.4 176.2 51.1 176.2 53C176.2 54.9 175.7 56.7 174.8 58.2C173.9 59.8 172.6 61 171 61.8C169.4 62.7 167.6 63.1 165.6 63.1C163.6 63.1 161.8 62.7 160.2 61.8ZM169.9 60.1C171.2 59.4 172.2 58.4 172.9 57.1C173.6 55.8 174 54.4 174 52.9C174 51.3 173.6 49.9 172.9 48.7C172.2 47.5 171.2 46.4 169.9 45.7C168.6 45 167.2 44.6 165.6 44.6C164 44.6 162.6 45 161.3 45.7C160 46.4 159 47.4 158.3 48.7C157.6 50 157.2 51.4 157.2 52.9C157.2 54.5 157.6 55.9 158.3 57.1C159 58.4 160 59.4 161.3 60.1C162.6 60.8 164 61.2 165.6 61.2C167.2 61.2 168.6 60.9 169.9 60.1Z" fill="white"/>
</svg>
