<svg width="557" height="240" viewBox="0 0 557 240" fill="none" xmlns="http://www.w3.org/2000/svg">
<path d="M95.0428 217H1.14534V153.903H73.8112L95.0428 217Z" fill="black"/>
<path d="M91.1553 214.01L71.7179 156.894H4.1357V214.01H91.1553ZM95.0428 217H1.14534V153.903H73.8112L95.0428 217Z" fill="black"/>
<path d="M0 28.2272V142.16H70.8716L36.7815 28.2272" fill="#FA8807"/>
<path d="M69.7472 91.3957H148.394V28H50.3098L69.7472 91.3957Z" fill="black"/>
<path d="M145.702 88.4054V30.9904H54.1973L71.8405 88.1063H145.702M148.394 91.3957H69.7472L50.3098 28H148.394V91.3957Z" fill="black"/>
<path d="M143.146 216.922H148.229V102.989H75.2645L109.953 216.922H143.146Z" fill="#FA8807"/>
<path d="M143.146 213.932H145.239V105.98H79.152L112.046 213.932H143.146ZM148.528 216.922C148.528 216.922 147.93 216.922 147.332 216.922C145.837 216.922 143.445 216.922 143.445 216.922H109.953L75.2645 102.989H148.528V216.922Z" fill="#FA8807"/>
<path d="M179.382 111L215.901 30.36H227.306L263.939 111H251.843L219.242 36.8112H223.85L191.248 111H179.382ZM194.934 90.84L198.045 81.624H243.434L246.774 90.84H194.934ZM312.789 111.922C306.645 111.922 300.962 110.923 295.74 108.926C290.594 106.853 286.101 103.973 282.261 100.286C278.498 96.5232 275.541 92.1456 273.391 87.1536C271.241 82.1616 270.165 76.6704 270.165 70.68C270.165 64.6896 271.241 59.1984 273.391 54.2064C275.541 49.2144 278.537 44.8752 282.377 41.1888C286.217 37.4256 290.709 34.5456 295.855 32.5488C301.077 30.4752 306.761 29.4384 312.905 29.4384C319.125 29.4384 324.847 30.5136 330.069 32.664C335.369 34.7376 339.861 37.848 343.548 41.9952L336.06 49.2528C332.988 46.0272 329.532 43.6464 325.692 42.1104C321.852 40.4976 317.743 39.6912 313.365 39.6912C308.834 39.6912 304.61 40.4592 300.693 41.9952C296.853 43.5312 293.513 45.6816 290.671 48.4464C287.829 51.2112 285.602 54.5136 283.989 58.3536C282.453 62.1168 281.685 66.2256 281.685 70.68C281.685 75.1344 282.453 79.2816 283.989 83.1216C285.602 86.8848 287.829 90.1488 290.671 92.9136C293.513 95.6784 296.853 97.8288 300.693 99.3648C304.61 100.901 308.834 101.669 313.365 101.669C317.743 101.669 321.852 100.901 325.692 99.3648C329.532 97.752 332.988 95.2944 336.06 91.992L343.548 99.2496C339.861 103.397 335.369 106.546 330.069 108.696C324.847 110.846 319.087 111.922 312.789 111.922ZM359.419 111V30.36H368.866L405.038 91.3008H399.97L435.682 30.36H445.128L445.243 111H434.184L434.069 47.7552H436.718L404.923 101.208H399.624L367.598 47.7552H370.478V111H359.419ZM470.344 111V30.36H481.749V92.568L529.442 30.36H540.04V111H528.751V48.9072L480.943 111H470.344ZM215.234 217.349C210.758 217.349 206.602 216.593 202.765 215.082C198.928 213.512 195.585 211.332 192.737 208.542C189.888 205.751 187.679 202.496 186.11 198.775C184.54 194.997 183.755 190.898 183.755 186.48C183.755 182.062 184.54 177.993 186.11 174.272C187.679 170.493 189.888 167.209 192.737 164.418C195.585 161.628 198.928 159.477 202.765 157.966C206.602 156.396 210.758 155.611 215.234 155.611C219.362 155.611 223.257 156.28 226.919 157.617C230.582 158.954 233.75 160.989 236.424 163.721L234.593 165.639C231.861 163.023 228.867 161.163 225.611 160.058C222.414 158.896 218.984 158.314 215.322 158.314C211.252 158.314 207.474 159.041 203.986 160.494C200.498 161.89 197.446 163.866 194.83 166.424C192.272 168.982 190.266 171.976 188.813 175.406C187.418 178.777 186.72 182.469 186.72 186.48C186.72 190.491 187.418 194.212 188.813 197.642C190.266 201.013 192.272 203.978 194.83 206.536C197.446 209.094 200.498 211.099 203.986 212.553C207.474 213.948 211.252 214.646 215.322 214.646C218.984 214.646 222.414 214.093 225.611 212.989C228.867 211.826 231.861 209.908 234.593 207.234L236.424 209.152C233.75 211.884 230.582 213.948 226.919 215.343C223.257 216.68 219.362 217.349 215.234 217.349ZM262.335 217V157.617L263.382 158.663H240.012V155.96H287.623V158.663H264.254L265.3 157.617V217H262.335ZM293.917 216.041L294.877 213.599C297.667 214.762 300.428 215.023 303.161 214.384C305.893 213.745 308.509 211.477 311.009 207.582L313.973 202.961L314.322 202.438L339 155.96H342.139L313.712 208.28C311.968 211.419 309.991 213.715 307.782 215.169C305.573 216.622 303.277 217.349 300.893 217.349C298.51 217.407 296.185 216.971 293.917 216.041ZM314.148 205.402L288.162 155.96H291.389L315.717 202.612L314.148 205.402ZM348.553 215.343L344.978 214.297C347.478 214.471 349.512 213.599 351.082 211.681C352.651 209.762 353.901 207.03 354.831 203.484C355.762 199.938 356.43 195.839 356.837 191.189C357.244 186.48 357.535 181.481 357.709 176.19L358.319 155.96H396.862V215.605H393.897V158.663H361.023L360.412 176.365C360.238 181.364 359.947 186.189 359.54 190.84C359.133 195.433 358.494 199.56 357.622 203.222C356.808 206.827 355.645 209.733 354.134 211.942C352.68 214.093 350.82 215.227 348.553 215.343ZM342.711 231.214L342.798 214.297H406.367V231.214H403.489V217H345.588L345.501 231.214H342.711ZM421.391 217V155.96H424.356V211.855L467.868 155.96H470.31V217H467.432V161.105L423.832 217H421.391ZM519.157 217.349C514.681 217.349 510.524 216.593 506.687 215.082C502.851 213.512 499.508 211.332 496.659 208.542C493.811 205.751 491.602 202.496 490.032 198.775C488.463 194.997 487.678 190.898 487.678 186.48C487.678 182.062 488.463 177.993 490.032 174.272C491.602 170.493 493.811 167.209 496.659 164.418C499.508 161.628 502.851 159.477 506.687 157.966C510.524 156.396 514.681 155.611 519.157 155.611C523.691 155.611 527.877 156.396 531.714 157.966C535.551 159.477 538.864 161.628 541.655 164.418C544.503 167.209 546.712 170.493 548.282 174.272C549.91 177.993 550.723 182.062 550.723 186.48C550.723 190.898 549.91 194.997 548.282 198.775C546.712 202.496 544.503 205.751 541.655 208.542C538.864 211.332 535.551 213.512 531.714 215.082C527.877 216.593 523.691 217.349 519.157 217.349ZM519.157 214.646C523.226 214.646 527.005 213.948 530.493 212.553C533.981 211.158 537.004 209.181 539.562 206.623C542.178 204.065 544.183 201.101 545.579 197.729C547.032 194.299 547.759 190.549 547.759 186.48C547.759 182.411 547.032 178.69 545.579 175.318C544.183 171.889 542.178 168.895 539.562 166.337C537.004 163.779 533.981 161.802 530.493 160.407C527.005 159.012 523.226 158.314 519.157 158.314C515.146 158.314 511.396 159.012 507.908 160.407C504.42 161.802 501.368 163.779 498.752 166.337C496.194 168.895 494.189 171.889 492.735 175.318C491.34 178.69 490.643 182.411 490.643 186.48C490.643 190.549 491.34 194.299 492.735 197.729C494.189 201.101 496.194 204.065 498.752 206.623C501.368 209.181 504.42 211.158 507.908 212.553C511.396 213.948 515.146 214.646 519.157 214.646Z" fill="black"/>
</svg>
