<svg width="185" height="77" viewBox="0 0 185 77" fill="none" xmlns="http://www.w3.org/2000/svg">
<path d="M33.983 69.927H2.58301V48.827H26.883L33.983 69.927Z" fill="black"/>
<path d="M32.683 68.927L26.183 49.827H3.58301V68.927H32.683ZM33.983 69.927H2.58301V48.827H26.883L33.983 69.927Z" fill="black"/>
<path d="M2.20001 6.80005V44.9H25.9L14.5 6.80005" fill="#FA8807"/>
<path d="M25.524 27.924H51.824V6.724H19.024L25.524 27.924Z" fill="black"/>
<path d="M50.924 26.924V7.724H20.324L26.224 26.824H50.924M51.824 27.924H25.524L19.024 6.724H51.824V27.924Z" fill="black"/>
<path d="M50.069 69.901H51.769V31.801H27.369L38.969 69.901H50.069Z" fill="#FA8807"/>
<path d="M50.069 68.901H50.769V32.801H28.669L39.669 68.901H50.069ZM51.869 69.901C51.869 69.901 51.669 69.901 51.469 69.901C50.969 69.901 50.169 69.901 50.169 69.901H38.969L27.369 31.801H51.869V69.901Z" fill="#FA8807"/>
<path d="M91.9 30.0001H74.6L70.9 38.3001H67.5L81.7 7.20007H84.9L99.1 38.3001H95.6L91.9 30.0001ZM90.7 27.4001L83.2 10.7001L75.7 27.4001H90.7Z" fill="black"/>
<path d="M106.1 37.5C104 36.8 102.3 35.8 101.2 34.6L102.5 32.1C103.6 33.2 105.1 34.1 107 34.8C108.9 35.5 110.8 35.8 112.8 35.8C115.6 35.8 117.7 35.3 119.1 34.3C120.5 33.3 121.2 32 121.2 30.3C121.2 29.1 120.8 28.1 120.1 27.3C119.4 26.5 118.4 26 117.3 25.6C116.2 25.2 114.7 24.8 112.7 24.3C110.4 23.7 108.5 23.1 107.1 22.6C105.7 22.1 104.5 21.2 103.5 20.1C102.5 19 102 17.5 102 15.5C102 13.9 102.4 12.5 103.2 11.2C104 9.90003 105.3 8.90004 107 8.10004C108.7 7.30004 110.8 6.90002 113.4 6.90002C115.2 6.90002 116.9 7.10004 118.6 7.60004C120.3 8.10004 121.8 8.80004 123 9.60004L121.9 12.2C120.6 11.3 119.2 10.7 117.7 10.3C116.2 9.90003 114.8 9.70003 113.3 9.70003C110.6 9.70003 108.5 10.2 107.2 11.3C105.8 12.4 105.1 13.7 105.1 15.4C105.1 16.6 105.5 17.6 106.2 18.4C106.9 19.2 107.9 19.7 109 20.1C110.1 20.5 111.7 20.9 113.6 21.4C115.9 22 117.7 22.5 119.1 23.1C120.5 23.6 121.7 24.5 122.7 25.6C123.7 26.7 124.2 28.2 124.2 30.1C124.2 31.7 123.8 33.1 122.9 34.4C122 35.7 120.8 36.7 119 37.5C117.3 38.3 115.1 38.6 112.6 38.6C110.5 38.6 108.3 38.2 106.1 37.5Z" fill="black"/>
<path d="M163.8 7.30008V38.4001H160.6V13.5001L148.4 34.4001H146.8L134.6 13.6001V38.3001H131.5V7.20007H134.2L147.7 30.2001L161.1 7.20007H163.8V7.30008Z" fill="black"/>
<path d="M173.9 7.30005H177.2V38.4H173.9V7.30005Z" fill="black"/>
<path d="M71.8 68.4C70.4 67.9 69.4 67.3 68.6 66.5L69.4 64.9C70.1 65.6 71.1 66.2 72.3 66.7C73.5 67.1 74.7 67.4 76 67.4C77.8 67.4 79.1 67.1 80 66.4C80.9 65.7 81.3 64.9 81.3 63.8C81.3 63 81.1 62.4 80.6 61.9C80.1 61.4 79.5 61.1 78.8 60.8C78.1 60.5 77.1 60.3 75.9 60C74.4 59.6 73.2 59.3 72.3 58.9C71.4 58.5 70.6 58 70 57.3C69.4 56.6 69 55.6 69 54.4C69 53.4 69.3 52.5 69.8 51.6C70.3 50.8 71.2 50.1 72.3 49.6C73.4 49.1 74.8 48.9 76.4 48.9C77.5 48.9 78.7 49.1 79.8 49.4C80.9 49.7 81.8 50.1 82.6 50.7L81.9 52.4C81.1 51.8 80.2 51.4 79.2 51.2C78.2 50.9 77.3 50.8 76.4 50.8C74.6 50.8 73.3 51.1 72.4 51.8C71.5 52.5 71.1 53.4 71.1 54.4C71.1 55.2 71.3 55.8 71.8 56.3C72.3 56.8 72.9 57.2 73.6 57.4C74.3 57.7 75.3 57.9 76.6 58.2C78.1 58.6 79.3 58.9 80.2 59.3C81.1 59.7 81.9 60.2 82.5 60.9C83.1 61.6 83.4 62.6 83.4 63.8C83.4 64.8 83.1 65.7 82.6 66.6C82.1 67.4 81.2 68.1 80.1 68.6C79 69.1 77.6 69.3 76 69.3C74.6 69.1 73.2 68.9 71.8 68.4Z" fill="black"/>
<path d="M91.8 50.7H84.8V48.9H101V50.7H94V68.9H91.9V50.7H91.8Z" fill="black"/>
<path d="M105.9 66.9C104.4 65.4 103.7 63.2 103.7 60.4V48.9H105.8V60.3C105.8 62.6 106.3 64.4 107.4 65.5C108.4 66.6 110 67.2 111.9 67.2C113.9 67.2 115.4 66.6 116.5 65.5C117.5 64.4 118.1 62.6 118.1 60.3V48.9H120.2V60.4C120.2 63.2 119.5 65.4 118 66.9C116.6 68.4 114.5 69.1 111.9 69.1C109.3 69.1 107.4 68.4 105.9 66.9Z" fill="black"/>
<path d="M126.6 48.9H134.8C136.9 48.9 138.8 49.3 140.4 50.2C142 51.1 143.3 52.2 144.2 53.7C145.1 55.2 145.5 56.9 145.5 58.9C145.5 60.8 145.1 62.6 144.2 64.1C143.3 65.6 142 66.8 140.4 67.6C138.8 68.4 136.9 68.9 134.8 68.9H126.6V48.9ZM134.6 67.1C136.4 67.1 137.9 66.8 139.2 66.1C140.5 65.4 141.5 64.4 142.3 63.2C143 62 143.4 60.6 143.4 59C143.4 57.4 143 56 142.3 54.8C141.6 53.6 140.6 52.6 139.2 51.9C137.9 51.2 136.3 50.9 134.6 50.9H128.7V67.3H134.6V67.1Z" fill="black"/>
<path d="M150.2 48.9H152.3V68.9H150.2V48.9Z" fill="black"/>
<path d="M162.2 67.8C160.6 66.9 159.3 65.7 158.4 64.2C157.5 62.7 157 60.9 157 59C157 57.1 157.5 55.3 158.4 53.8C159.3 52.3 160.6 51 162.2 50.2C163.8 49.3 165.6 48.9 167.6 48.9C169.6 48.9 171.4 49.3 173 50.2C174.6 51.1 175.8 52.3 176.8 53.8C177.7 55.4 178.2 57.1 178.2 59C178.2 60.9 177.7 62.7 176.8 64.2C175.9 65.8 174.6 67 173 67.8C171.4 68.7 169.6 69.1 167.6 69.1C165.6 69.1 163.8 68.7 162.2 67.8ZM171.9 66.1C173.2 65.4 174.2 64.4 174.9 63.1C175.6 61.8 176 60.4 176 58.9C176 57.3 175.6 55.9 174.9 54.7C174.2 53.5 173.2 52.4 171.9 51.7C170.6 51 169.2 50.6 167.6 50.6C166 50.6 164.6 51 163.3 51.7C162 52.4 161 53.4 160.3 54.7C159.6 56 159.2 57.4 159.2 58.9C159.2 60.5 159.6 61.9 160.3 63.1C161 64.4 162 65.4 163.3 66.1C164.6 66.8 166 67.2 167.6 67.2C169.2 67.2 170.6 66.9 171.9 66.1Z" fill="black"/>
</svg>
